<?xml version="1.0" encoding="UTF-8" standalone="no"?>
<!DOCTYPE svg PUBLIC "-//W3C//DTD SVG 1.1//EN"
 "http://www.w3.org/Graphics/SVG/1.1/DTD/svg11.dtd">
<!-- Generated by graphviz version 2.43.0 (0)
 -->
<!-- Title: %3 Pages: 1 -->
<svg width="707pt" height="476pt"
 viewBox="0.00 0.00 707.21 476.00" xmlns="http://www.w3.org/2000/svg" xmlns:xlink="http://www.w3.org/1999/xlink">
<g id="graph0" class="graph" transform="scale(1 1) rotate(0) translate(4 472)">
<title>%3</title>
<polygon fill="white" stroke="transparent" points="-4,4 -4,-472 703.21,-472 703.21,4 -4,4"/>
<!-- [root] aws_eip.lb (expand) -->
<g id="node1" class="node">
<title>[root] aws_eip.lb (expand)</title>
<polygon fill="none" stroke="black" points="452.88,-252 361.88,-252 361.88,-216 452.88,-216 452.88,-252"/>
<text text-anchor="middle" x="407.38" y="-230.3" font-family="Times,serif" font-size="14.00">aws_eip.lb</text>
</g>
<!-- [root] aws_instance.myec2 (expand) -->
<g id="node2" class="node">
<title>[root] aws_instance.myec2 (expand)</title>
<polygon fill="none" stroke="black" points="488.38,-180 326.38,-180 326.38,-144 488.38,-144 488.38,-180"/>
<text text-anchor="middle" x="407.38" y="-158.3" font-family="Times,serif" font-size="14.00">aws_instance.myec2</text>
</g>
<!-- [root] aws_eip.lb (expand)&#45;&gt;[root] aws_instance.myec2 (expand) -->
<g id="edge1" class="edge">
<title>[root] aws_eip.lb (expand)&#45;&gt;[root] aws_instance.myec2 (expand)</title>
<path fill="none" stroke="black" d="M407.38,-215.7C407.38,-207.98 407.38,-198.71 407.38,-190.11"/>
<polygon fill="black" stroke="black" points="410.88,-190.1 407.38,-180.1 403.88,-190.1 410.88,-190.1"/>
</g>
<!-- [root] data.aws_ami.dataAmiId (expand) -->
<g id="node4" class="node">
<title>[root] data.aws_ami.dataAmiId (expand)</title>
<polygon fill="none" stroke="black" points="420.88,-108 229.88,-108 229.88,-72 420.88,-72 420.88,-108"/>
<text text-anchor="middle" x="325.38" y="-86.3" font-family="Times,serif" font-size="14.00">data.aws_ami.dataAmiId</text>
</g>
<!-- [root] aws_instance.myec2 (expand)&#45;&gt;[root] data.aws_ami.dataAmiId (expand) -->
<g id="edge2" class="edge">
<title>[root] aws_instance.myec2 (expand)&#45;&gt;[root] data.aws_ami.dataAmiId (expand)</title>
<path fill="none" stroke="black" d="M387.11,-143.7C376.88,-134.97 364.32,-124.24 353.2,-114.75"/>
<polygon fill="black" stroke="black" points="355.3,-111.94 345.42,-108.1 350.75,-117.26 355.3,-111.94"/>
</g>
<!-- [root] var.def&#45;tags -->
<g id="node6" class="node">
<title>[root] var.def&#45;tags</title>
<polygon fill="none" stroke="black" points="533.38,-108 439.38,-108 439.38,-72 539.38,-72 539.38,-102 533.38,-108"/>
<polyline fill="none" stroke="black" points="533.38,-108 533.38,-102 "/>
<polyline fill="none" stroke="black" points="539.38,-102 533.38,-102 "/>
<text text-anchor="middle" x="489.38" y="-86.3" font-family="Times,serif" font-size="14.00">var.def&#45;tags</text>
</g>
<!-- [root] aws_instance.myec2 (expand)&#45;&gt;[root] var.def&#45;tags -->
<g id="edge3" class="edge">
<title>[root] aws_instance.myec2 (expand)&#45;&gt;[root] var.def&#45;tags</title>
<path fill="none" stroke="black" d="M427.65,-143.7C437.88,-134.97 450.44,-124.24 461.56,-114.75"/>
<polygon fill="black" stroke="black" points="464.01,-117.26 469.35,-108.1 459.47,-111.94 464.01,-117.26"/>
</g>
<!-- [root] aws_security_group.allow_tls (expand) -->
<g id="node3" class="node">
<title>[root] aws_security_group.allow_tls (expand)</title>
<polygon fill="none" stroke="black" points="519.38,-324 295.38,-324 295.38,-288 519.38,-288 519.38,-324"/>
<text text-anchor="middle" x="407.38" y="-302.3" font-family="Times,serif" font-size="14.00">aws_security_group.allow_tls</text>
</g>
<!-- [root] aws_security_group.allow_tls (expand)&#45;&gt;[root] aws_eip.lb (expand) -->
<g id="edge4" class="edge">
<title>[root] aws_security_group.allow_tls (expand)&#45;&gt;[root] aws_eip.lb (expand)</title>
<path fill="none" stroke="black" d="M407.38,-287.7C407.38,-279.98 407.38,-270.71 407.38,-262.11"/>
<polygon fill="black" stroke="black" points="410.88,-262.1 407.38,-252.1 403.88,-262.1 410.88,-262.1"/>
</g>
<!-- [root] provider[&quot;registry.terraform.io/hashicorp/aws&quot;] -->
<g id="node5" class="node">
<title>[root] provider[&quot;registry.terraform.io/hashicorp/aws&quot;]</title>
<polygon fill="none" stroke="black" points="325.38,-36 0.12,-18 325.38,0 650.65,-18 325.38,-36"/>
<text text-anchor="middle" x="325.38" y="-14.3" font-family="Times,serif" font-size="14.00">provider[&quot;registry.terraform.io/hashicorp/aws&quot;]</text>
</g>
<!-- [root] data.aws_ami.dataAmiId (expand)&#45;&gt;[root] provider[&quot;registry.terraform.io/hashicorp/aws&quot;] -->
<g id="edge5" class="edge">
<title>[root] data.aws_ami.dataAmiId (expand)&#45;&gt;[root] provider[&quot;registry.terraform.io/hashicorp/aws&quot;]</title>
<path fill="none" stroke="black" d="M325.38,-71.7C325.38,-63.98 325.38,-54.71 325.38,-46.11"/>
<polygon fill="black" stroke="black" points="328.88,-46.1 325.38,-36.1 321.88,-46.1 328.88,-46.1"/>
</g>
<!-- [root] provider[&quot;registry.terraform.io/hashicorp/aws&quot;] (close) -->
<g id="node7" class="node">
<title>[root] provider[&quot;registry.terraform.io/hashicorp/aws&quot;] (close)</title>
<ellipse fill="none" stroke="black" cx="407.38" cy="-378" rx="291.65" ry="18"/>
<text text-anchor="middle" x="407.38" y="-374.3" font-family="Times,serif" font-size="14.00">[root] provider[&quot;registry.terraform.io/hashicorp/aws&quot;] (close)</text>
</g>
<!-- [root] provider[&quot;registry.terraform.io/hashicorp/aws&quot;] (close)&#45;&gt;[root] aws_security_group.allow_tls (expand) -->
<g id="edge6" class="edge">
<title>[root] provider[&quot;registry.terraform.io/hashicorp/aws&quot;] (close)&#45;&gt;[root] aws_security_group.allow_tls (expand)</title>
<path fill="none" stroke="black" d="M407.38,-359.7C407.38,-351.98 407.38,-342.71 407.38,-334.11"/>
<polygon fill="black" stroke="black" points="410.88,-334.1 407.38,-324.1 403.88,-334.1 410.88,-334.1"/>
</g>
<!-- [root] root -->
<g id="node8" class="node">
<title>[root] root</title>
<ellipse fill="none" stroke="black" cx="407.38" cy="-450" rx="58.49" ry="18"/>
<text text-anchor="middle" x="407.38" y="-446.3" font-family="Times,serif" font-size="14.00">[root] root</text>
</g>
<!-- [root] root&#45;&gt;[root] provider[&quot;registry.terraform.io/hashicorp/aws&quot;] (close) -->
<g id="edge7" class="edge">
<title>[root] root&#45;&gt;[root] provider[&quot;registry.terraform.io/hashicorp/aws&quot;] (close)</title>
<path fill="none" stroke="black" d="M407.38,-431.7C407.38,-423.98 407.38,-414.71 407.38,-406.11"/>
<polygon fill="black" stroke="black" points="410.88,-406.1 407.38,-396.1 403.88,-406.1 410.88,-406.1"/>
</g>
</g>
</svg>
